<svg width="64" height="64" viewBox="0 0 64 64" fill="none" xmlns="http://www.w3.org/2000/svg">
<g clip-path="url(#clip0_96_142)">
<path d="M0 32C0 14.3269 14.3269 0 32 0C49.6731 0 64 14.3269 64 32C64 49.6731 49.6731 64 32 64C14.3269 64 0 49.6731 0 32Z" fill="#333333"/>
<path d="M25.6 51.1999C29.1346 51.1999 32 48.3345 32 44.7999V38.3999H25.6C22.0653 38.3999 19.2 41.2653 19.2 44.7999C19.2 48.3345 22.0653 51.1999 25.6 51.1999Z" fill="#0ACF83"/>
<path d="M19.2 32C19.2 28.4653 22.0653 25.6 25.6 25.6H32V38.4H25.6C22.0653 38.4 19.2 35.5345 19.2 32Z" fill="#A259FF"/>
<path d="M19.2 19.2C19.2 15.6653 22.0653 12.8 25.6 12.8H32V25.6H25.6C22.0653 25.6 19.2 22.7345 19.2 19.2Z" fill="#F24E1E"/>
<path d="M32 12.8H38.4C41.9347 12.8 44.8 15.6653 44.8 19.2C44.8 22.7345 41.9347 25.6 38.4 25.6H32V12.8Z" fill="#FF7262"/>
<path d="M44.8 32C44.8 35.5345 41.9347 38.4 38.4 38.4C34.8653 38.4 32 35.5345 32 32C32 28.4653 34.8653 25.6 38.4 25.6C41.9347 25.6 44.8 28.4653 44.8 32Z" fill="#1ABCFE"/>
</g>
<defs>
<clipPath id="clip0_96_142">
<rect width="64" height="64" fill="white"/>
</clipPath>
</defs>
</svg>
