<svg width="64" height="64" viewBox="0 0 64 64" fill="none" xmlns="http://www.w3.org/2000/svg">
<g clip-path="url(#clip0_96_149)">
<path d="M62.793 29.1484L34.8496 1.20711C33.2416 -0.402371 30.6314 -0.402371 29.0212 1.20711L23.2188 7.00954L30.5794 14.3702C32.2901 13.7923 34.2513 14.1799 35.6151 15.5436C36.9851 16.9157 37.3699 18.8939 36.7779 20.6101L43.8717 27.7039C45.588 27.1126 47.5682 27.4954 48.9389 28.8682C50.8546 30.7831 50.8546 33.8869 48.9389 35.8033C47.0226 37.7197 43.9188 37.7197 42.0017 35.8033C40.5608 34.3609 40.2048 32.2445 40.9344 30.4693L34.3188 23.8537L34.3181 41.2631C34.785 41.4948 35.226 41.8031 35.6151 42.1907C37.5307 44.1056 37.5307 47.2094 35.6151 49.1272C33.6987 51.0428 30.5935 51.0428 28.6799 49.1272C26.7643 47.2094 26.7643 44.1056 28.6799 42.1907C29.1532 41.7181 29.701 41.3607 30.2852 41.1205V23.5489C29.701 23.3101 29.1539 22.9548 28.6799 22.4787C27.2285 21.0293 26.8795 18.8995 27.6231 17.1173L20.3678 9.86055L1.20776 29.0192C-0.402425 30.6301 -0.402425 33.2402 1.20776 34.8497L29.1511 62.7917C30.7599 64.4011 33.3694 64.4011 34.9802 62.7917L62.793 34.9796C64.4025 33.3694 64.4025 30.7579 62.793 29.1484Z" fill="#DE4C36"/>
</g>
<defs>
<clipPath id="clip0_96_149">
<rect width="64" height="64" fill="white"/>
</clipPath>
</defs>
</svg>
