<svg width="32" height="32" viewBox="0 0 32 32" fill="none"
    xmlns="http://www.w3.org/2000/svg">
    <path d="M27.9893 1.71429H4.01072C2.74286 1.71429 1.71429 2.74286 1.71429 4.01071V27.9893C1.71429 29.2571 2.74286 30.2857 4.01072 30.2857H27.9893C29.2571 30.2857 30.2857 29.2571 30.2857 27.9893V4.01071C30.2857 2.74286 29.2571 1.71429 27.9893 1.71429ZM27.9893 28C11.9964 27.9964 4 27.9929 4 27.9893C4.00357 11.9964 4.00714 4 4.01072 4C20.0036 4.00357 28 4.00714 28 4.01071C27.9964 20.0036 27.9929 28 27.9893 28ZM5.95 12.425H10.1893V26.0607H5.95V12.425ZM8.07143 10.5607C9.425 10.5607 10.5286 9.46071 10.5286 8.10357C10.5286 7.78089 10.465 7.46138 10.3415 7.16326C10.2181 6.86515 10.0371 6.59428 9.80889 6.36611C9.58073 6.13794 9.30985 5.95695 9.01174 5.83347C8.71362 5.70998 8.39411 5.64643 8.07143 5.64643C7.74875 5.64643 7.42924 5.70998 7.13112 5.83347C6.83301 5.95695 6.56213 6.13794 6.33397 6.36611C6.1058 6.59428 5.92481 6.86515 5.80133 7.16326C5.67784 7.46138 5.61429 7.78089 5.61429 8.10357C5.61072 9.46071 6.71072 10.5607 8.07143 10.5607ZM17.0821 19.3143C17.0821 17.5357 17.4214 15.8143 19.625 15.8143C21.7964 15.8143 21.8286 17.8464 21.8286 19.4286V26.0607H26.0643V18.5821C26.0643 14.9107 25.2714 12.0857 20.9821 12.0857C18.9214 12.0857 17.5393 13.2179 16.9714 14.2893H16.9143V12.425H12.8464V26.0607H17.0821V19.3143Z"/>
</svg>
