<svg width="64" height="64" viewBox="0 0 64 64" fill="none"
    xmlns="http://www.w3.org/2000/svg">
    <g clipPath="url(#clip0_96_175)">
        <path d="M63.9802 32C62.5142 41.3216 59.662 44.0463 54.6108 50.3085C49.5596 55.6147 42.2936 64.4742 32 63.9802C22.6784 62.5142 19.9536 59.662 13.6915 54.6108C8.38533 49.5596 -0.474155 42.2936 0.0198094 32C1.48577 22.6784 4.33801 19.9537 9.38919 13.6915C14.4404 8.38533 21.7064 -0.474155 32 0.0198094C41.3216 1.48577 44.0463 4.33801 50.3085 9.38919C55.6147 14.4404 64.4742 21.7064 63.9802 32Z" fill="#3765AF"/>
        <path d="M32.4481 51.027C31.9632 51.027 31.4784 50.901 31.0561 50.6489L26.6455 48.0177C25.9886 47.6396 26.3014 47.5135 26.5204 47.4348C27.3963 47.1197 27.5839 47.0566 28.5224 46.5209C28.6162 46.4579 28.757 46.4894 28.8508 46.5525L32.2448 48.5849C32.3699 48.6479 32.5419 48.6479 32.6514 48.5849L45.8674 40.8962C45.9926 40.8332 46.0708 40.6757 46.0708 40.5339V25.1722C46.0708 25.0147 45.9926 24.8886 45.8674 24.8099L32.6514 17.1369C32.5263 17.0581 32.3699 17.0581 32.2448 17.1369L19.0444 24.8099C18.9192 24.8886 18.841 25.0304 18.841 25.1722V40.5339C18.841 40.6757 18.9192 40.8175 19.0444 40.8962L22.6573 43.0075C24.6279 44.0001 25.8166 42.8342 25.8166 41.6683V26.4957C25.8166 26.2751 25.9886 26.1176 26.2076 26.1176H27.8811C28.0844 26.1176 28.2565 26.2909 28.2565 26.4957V41.6525C28.2565 44.2994 26.8332 45.8119 24.3464 45.8119C23.58 45.8119 22.9857 45.8119 21.2966 44.9769L17.8244 42.9602C16.9642 42.456 16.4324 41.5264 16.4324 40.5339V25.1722C16.4324 24.1796 16.9642 23.2501 17.8244 22.7459L31.0405 15.0572C31.8694 14.5845 32.9955 14.5845 33.8244 15.0572L47.0404 22.7459C47.9007 23.2501 48.4324 24.1796 48.4324 25.1722V40.5339C48.4324 41.5264 47.9007 42.456 47.0404 42.9602L33.8244 50.6489C33.4178 50.8852 32.9329 51.027 32.4481 51.027Z" fill="#CCCCCC"/>
        <path d="M36.5316 39.7838C30.6329 39.7838 29.4054 37.1134 29.4054 34.8829C29.4054 34.663 29.5808 34.5059 29.788 34.5059H31.5257C31.717 34.5059 31.8764 34.6473 31.9083 34.8358C32.1634 36.5794 32.9605 37.459 36.5156 37.459C39.3533 37.459 40.5649 36.8307 40.5649 35.3384C40.5649 34.4902 40.2302 33.8462 35.8142 33.422C32.1315 33.0608 29.8518 32.2596 29.8518 29.3537C29.8518 26.6833 32.1475 25.0811 35.9895 25.0811C40.3099 25.0811 42.4461 26.5576 42.7171 29.715C42.7331 29.8249 42.6853 29.9349 42.6215 30.0134C42.5418 30.0919 42.4461 30.1391 42.3345 30.1391H40.5809C40.4055 30.1391 40.2461 30.0134 40.1983 29.8406C39.7838 28.0028 38.7635 27.4216 35.9895 27.4216C32.8967 27.4216 32.5301 28.4897 32.5301 29.2751C32.5301 30.2333 32.9605 30.5161 37.1374 31.0658C41.2823 31.5999 43.2432 32.3696 43.2432 35.2285C43.2432 38.1187 40.7881 39.7838 36.5316 39.7838Z" fill="#CCCCCC"/>
    </g>
    <defs>
        <clipPath id="clip0_96_175">
            <rect width="64" height="64" fill="white"/>
        </clipPath>
    </defs>
</svg>
