<svg width="64" height="64" viewBox="0 0 64 64" fill="none" xmlns="http://www.w3.org/2000/svg">
<g clip-path="url(#clip0_96_179)">
<path d="M64 0H0V64H64V0Z" fill="#061E26"/>
<path d="M60.7595 3.24051V60.7595H3.24051V3.24051H60.7595ZM64 0H0V64H64V0Z" fill="#26C9FF"/>
<path d="M31.6759 25.519C31.6759 28.4354 30.7038 30.7038 28.6785 32.243C26.6532 33.7823 23.8177 34.5924 20.0911 34.5924H16.6886V45.9342H13.2861V17.0937H20.8202C28.1114 17.0937 31.6759 19.9291 31.6759 25.519ZM16.6886 31.757H19.6861C22.6835 31.757 24.7899 31.2709 26.1671 30.2987C27.4633 29.3266 28.1924 27.7873 28.1924 25.681C28.1924 23.7367 27.5443 22.3595 26.3291 21.3873C25.1139 20.4152 23.0886 20.0101 20.4962 20.0101H16.7696V31.757H16.6886Z" fill="#D9F5FF" stroke="#D9F5FF" stroke-width="2" stroke-miterlimit="10"/>
<path d="M51.2 40.1013C51.2 42.1266 50.4709 43.6658 48.9316 44.8C47.3924 45.9342 45.2861 46.4203 42.6126 46.4203C39.7772 46.4203 37.5089 45.9342 35.8886 45.043V41.9646C36.9418 42.5317 38.0759 42.9367 39.2101 43.1798C40.4253 43.5038 41.5595 43.6658 42.6937 43.6658C44.3949 43.6658 45.6911 43.4228 46.6633 42.8557C47.5544 42.2886 48.0405 41.4785 48.0405 40.3443C48.0405 39.5342 47.6354 38.8051 46.9063 38.157C46.1772 37.5899 44.719 36.8608 42.6126 36.0506C40.5873 35.3215 39.1291 34.6734 38.319 34.1063C37.5089 33.5392 36.8608 32.8911 36.4557 32.162C36.0506 31.4329 35.8076 30.6228 35.8076 29.6506C35.8076 27.8684 36.5367 26.4911 37.9949 25.438C39.4532 24.3848 41.3975 23.8987 43.9089 23.8987C46.2582 23.8987 48.5266 24.3848 50.7139 25.357L49.5797 28.0304C47.3924 27.1392 45.4481 26.6532 43.6658 26.6532C42.1266 26.6532 40.9114 26.8962 40.1823 27.3823C39.3721 27.8684 38.9671 28.5165 38.9671 29.4076C38.9671 29.9747 39.1291 30.4608 39.3721 30.8658C39.6962 31.2709 40.1823 31.676 40.8304 32C41.4785 32.4051 42.7747 32.8911 44.638 33.6203C47.2304 34.5924 48.9316 35.4836 49.8228 36.4557C50.7949 37.5089 51.2 38.643 51.2 40.1013Z" fill="#D9F5FF" stroke="#D9F5FF" stroke-width="2" stroke-miterlimit="10"/>
</g>
<defs>
<clipPath id="clip0_96_179">
<rect width="64" height="64" fill="white"/>
</clipPath>
</defs>
</svg>
