<svg width="64" height="57" viewBox="0 0 64 57" fill="none" xmlns="http://www.w3.org/2000/svg">
<g clip-path="url(#clip0_96_188)">
<path d="M52.6208 18.4559C51.9569 18.2274 51.269 18.0112 50.5606 17.8067C50.677 17.3315 50.7839 16.8625 50.8789 16.4015C52.4385 8.83122 51.4188 2.73256 47.9368 0.724623C44.5981 -1.20072 39.1378 0.806759 33.6232 5.60594C33.0929 6.06743 32.5612 6.55603 32.0296 7.0681C31.6754 6.7293 31.3218 6.4019 30.9691 6.08873C25.1897 0.957132 19.3967 -1.20539 15.9181 0.808354C12.5826 2.73928 11.5948 8.47261 12.9986 15.647C13.1342 16.34 13.2927 17.0476 13.4718 17.7672C12.652 17.9999 11.8605 18.248 11.1031 18.512C4.32733 20.8743 0 24.5767 0 28.417C0 32.3833 4.64539 36.3616 11.7029 38.7738C12.2599 38.9642 12.8378 39.1442 13.4333 39.3151C13.24 40.0933 13.0719 40.8558 12.9307 41.5996C11.5922 48.6495 12.6375 54.2474 15.9642 56.1661C19.4003 58.1476 25.1671 56.1109 30.7825 51.2023C31.2264 50.8143 31.6718 50.4028 32.118 49.9715C32.6964 50.5285 33.2738 51.0556 33.8482 51.55C39.2874 56.2306 44.6595 58.1206 47.9831 56.1965C51.4158 54.2093 52.5314 48.1959 51.083 40.8795C50.9724 40.3208 50.8437 39.7499 50.6991 39.1689C51.1041 39.0492 51.5017 38.9256 51.8894 38.7971C59.2263 36.3662 64 32.4363 64 28.417C64 24.5628 59.5331 20.8355 52.6208 18.4559ZM51.0295 36.2019C50.6796 36.3177 50.3205 36.4297 49.9546 36.5383C49.1446 33.9741 48.0514 31.2474 46.7137 28.4303C47.9903 25.6803 49.0412 22.9885 49.8285 20.441C50.4832 20.6304 51.1186 20.8302 51.7309 21.0411C57.6533 23.0799 61.2659 26.0943 61.2659 28.417C61.2659 30.8911 57.3644 34.1028 51.0295 36.2019ZM48.4009 41.4105C49.0414 44.6457 49.1329 47.5707 48.7086 49.8573C48.3275 51.9119 47.5609 53.2818 46.6131 53.8304C44.5962 54.9979 40.2829 53.4803 35.6313 49.4775C35.098 49.0186 34.5609 48.5286 34.0221 48.0101C35.8254 46.0378 37.6277 43.7449 39.3867 41.1985C42.4807 40.924 45.4037 40.4751 48.0545 39.8623C48.1851 40.389 48.301 40.9055 48.4009 41.4105ZM21.819 53.6287C19.8485 54.3246 18.279 54.3445 17.3303 53.7975C15.3115 52.6331 14.4723 48.1386 15.6171 42.1095C15.7482 41.419 15.9043 40.7098 16.0841 39.9848C18.7059 40.5645 21.6075 40.9817 24.7088 41.2331C26.4797 43.7249 28.3341 46.0152 30.2028 48.0207C29.7945 48.4148 29.3878 48.7901 28.9834 49.1437C26.5003 51.3142 24.012 52.8541 21.819 53.6287ZM12.5872 36.1867C9.46645 35.1201 6.88926 33.7338 5.12272 32.2211C3.53537 30.8617 2.73395 29.5121 2.73395 28.417C2.73395 26.0866 6.20836 23.1141 12.0031 21.0937C12.7062 20.8486 13.4422 20.6175 14.2061 20.4005C15.0069 23.0056 16.0575 25.7293 17.3253 28.4835C16.0411 31.2786 14.9756 34.0457 14.1669 36.6814C13.6223 36.5249 13.0948 36.3601 12.5872 36.1867ZM15.6818 15.122C14.479 8.9751 15.2778 4.33814 17.2879 3.17457C19.429 1.93501 24.1636 3.70236 29.1537 8.13324C29.4727 8.41644 29.7929 8.71286 30.1141 9.01953C28.2546 11.0162 26.4172 13.2893 24.662 15.7664C21.652 16.0454 18.7708 16.4935 16.1217 17.0937C15.9552 16.4237 15.8076 15.7655 15.6818 15.122ZM43.2885 21.9388C42.6552 20.8449 42.0051 19.7769 41.3423 18.7381C43.3843 18.9962 45.3407 19.3389 47.178 19.7582C46.6264 21.526 45.9389 23.3744 45.1296 25.2692C44.5491 24.167 43.9351 23.0557 43.2885 21.9388ZM32.0305 10.9735C33.2916 12.3397 34.5545 13.8651 35.7967 15.5201C34.545 15.461 33.2777 15.4302 32 15.4302C30.7344 15.4302 29.4765 15.4603 28.2325 15.5184C29.4759 13.8788 30.7497 12.3554 32.0305 10.9735ZM20.7005 21.9577C20.0679 23.0546 19.4652 24.1598 18.8938 25.2671C18.0977 23.3789 17.4165 21.5222 16.8601 19.7293C18.6862 19.3207 20.6334 18.9865 22.6624 18.7333C21.9903 19.7817 21.3348 20.8578 20.7005 21.9577ZM22.7208 38.2957C20.6245 38.0618 18.648 37.7449 16.8224 37.3476C17.3877 35.5227 18.0839 33.6263 18.8969 31.6974C19.4698 32.8039 20.0748 33.9096 20.7113 35.0089C21.3596 36.1289 22.0314 37.2259 22.7208 38.2957ZM32.1062 46.0533C30.8103 44.6551 29.5178 43.1086 28.2555 41.445C29.4809 41.4931 30.7303 41.5177 32 41.5177C33.3045 41.5177 34.5941 41.4883 35.8633 41.4318C34.6171 43.1253 33.3587 44.6743 32.1062 46.0533ZM45.1557 31.5991C46.0111 33.5488 46.7323 35.4353 47.3048 37.2291C45.4492 37.6524 43.4457 37.9934 41.3348 38.2467C41.9991 37.1939 42.655 36.1076 43.2994 34.9901C43.9514 33.8596 44.5704 32.7274 45.1557 31.5991ZM40.9311 33.6242C39.9307 35.3589 38.9036 37.0148 37.8609 38.5779C35.9618 38.7137 33.9997 38.7836 32 38.7836C30.0084 38.7836 28.071 38.7218 26.2055 38.6007C25.1208 37.0171 24.0713 35.3563 23.0773 33.6392C22.0858 31.9267 21.1736 30.1998 20.3468 28.4826C21.1734 26.7614 22.0835 25.0326 23.0692 23.3232L23.069 23.3236C24.0573 21.6096 25.0975 19.9569 26.1722 18.3832C28.0756 18.2393 30.0274 18.1643 31.9999 18.1643C33.9813 18.1643 35.9357 18.2399 37.8385 18.3851C38.8968 19.9472 39.9299 21.5946 40.9221 23.3088C41.9257 25.0421 42.8475 26.7595 43.6812 28.4438C42.85 30.157 41.9302 31.8916 40.9311 33.6242ZM46.5712 3.09323C48.7143 4.32914 49.5478 9.31356 48.2012 15.8497C48.1153 16.2667 48.0186 16.6915 47.9136 17.122C45.2584 16.5094 42.3751 16.0535 39.3563 15.7703C37.5978 13.266 35.7754 10.9893 33.9462 9.01828C34.438 8.54517 34.9291 8.09405 35.4181 7.66834C40.1431 3.55643 44.5591 1.93296 46.5712 3.09323ZM32 22.702C35.1562 22.702 37.715 25.2606 37.715 28.417C37.715 31.5732 35.1562 34.132 32 34.132C28.8438 34.132 26.285 31.5732 26.285 28.417C26.285 25.2606 28.8438 22.702 32 22.702Z" fill="#00D8FF"/>
</g>
<defs>
<clipPath id="clip0_96_188">
<rect width="64" height="57" fill="white"/>
</clipPath>
</defs>
</svg>
