<svg width="50" height="50" viewBox="0 0 50 50" fill="none" xmlns="http://www.w3.org/2000/svg">
<path d="M50 46.4211H34.2203V44.8586H48.4375V7.26874H1.5625V44.8586H15.7797V46.4211H0V5.70624H50V46.4211Z" fill="#9A9A9A"/>
<path d="M50 7.26836H0V0H50V7.26836ZM1.5625 5.70586H48.4375V1.5625H1.5625V5.70586Z" fill="#9A9A9A"/>
<path d="M4.8324 2.81213H2.99451V4.37463H4.8324V2.81213Z" fill="#9A9A9A"/>
<path d="M8.016 2.81213H6.17694V4.37463H8.016V2.81213Z" fill="#9A9A9A"/>
<path d="M11.1981 2.81213H9.35901V4.37463H11.1981V2.81213Z" fill="#9A9A9A"/>
<path d="M31.7012 42.8015H18.2746L18.2258 42.0726C18.1309 40.6644 17.8184 39.5383 17.3453 38.9019C12.6246 32.7726 12.4926 26.9 12.4926 26.8422C12.4926 19.8875 18.1032 14.2297 24.9996 14.2297C31.8961 14.2297 37.5071 19.8875 37.5071 26.8422C37.5071 26.8996 37.3746 32.7676 32.6461 38.9117C32.1711 39.548 31.8606 40.6457 31.7551 42.0773L31.7012 42.8015ZM19.7164 41.239H30.2684C30.4465 39.8359 30.8262 38.7379 31.4004 37.9683C35.8207 32.2242 35.9446 26.8945 35.9446 26.8422C35.9446 20.7492 31.0348 15.7922 24.9996 15.7922C18.9645 15.7922 14.0551 20.7492 14.0551 26.8422C14.0551 26.8945 14.1786 32.2289 18.5907 37.9586C19.1707 38.7383 19.5465 39.8375 19.7164 41.239Z" fill="#9A9A9A"/>
<path d="M17.1652 26.7977H15.6027C15.6035 21.5985 19.8191 17.3688 25 17.3688V18.9313C20.6805 18.9313 17.166 22.4602 17.1652 26.7977Z" fill="#9A9A9A"/>
<path d="M22.654 41.8505L20.332 28.8484L18.7938 29.1231L21.1158 42.1252L22.654 41.8505Z" fill="#9A9A9A"/>
<path d="M31.2087 29.1214L29.6706 28.8467L27.3485 41.8496L28.8866 42.1243L31.2087 29.1214Z" fill="#9A9A9A"/>
<path d="M21.4211 31.4965L19.325 30.5957L19.9418 29.1602L21.4211 29.7961L23.209 29.0278L24.9969 29.7961L26.7852 29.0278L28.5758 29.7961L30.0582 29.1602L30.6746 30.5957L28.5758 31.4965L26.7852 30.7282L24.9965 31.4965L23.209 30.7282L21.4211 31.4965Z" fill="#9A9A9A"/>
<path d="M32.6258 41.3785H17.3758V42.941H32.6258V41.3785Z" fill="#9A9A9A"/>
<path d="M32.6258 44.8629H17.3758V46.4254H32.6258V44.8629Z" fill="#9A9A9A"/>
<path d="M30.0711 48.3485H19.9297V49.911H30.0711V48.3485Z" fill="#9A9A9A"/>
<path d="M19.9262 42.3184H18.3637V44.9665H19.9262V42.3184Z" fill="#9A9A9A"/>
<path d="M25.7824 10.4852H24.2199V12.8309H25.7824V10.4852Z" fill="#9A9A9A"/>
<path d="M22.1796 13.1055L21.5781 10.8398L20.0679 11.2408L20.6694 13.5064L22.1796 13.1055Z" fill="#9A9A9A"/>
<path d="M18.7692 14.3115L17.6067 12.2795L16.2504 13.0555L17.413 15.0875L18.7692 14.3115Z" fill="#9A9A9A"/>
<path d="M15.7824 16.3654L14.1384 14.7065L13.0285 15.8063L14.6725 17.4653L15.7824 16.3654Z" fill="#9A9A9A"/>
<path d="M13.4252 19.1269L11.4126 17.9537L10.6257 19.3035L12.6383 20.4767L13.4252 19.1269Z" fill="#9A9A9A"/>
<path d="M11.854 22.411L9.60754 21.8043L9.2002 23.3128L11.4466 23.9194L11.854 22.411Z" fill="#9A9A9A"/>
<path d="M11.1801 25.993H8.85431V27.5555H11.1801V25.993Z" fill="#9A9A9A"/>
<path d="M11.8553 31.1392L11.4478 29.6307L9.20207 30.2374L9.60957 31.7458L11.8553 31.1392Z" fill="#9A9A9A"/>
<path d="M13.4242 34.4206L12.6381 33.0703L10.6241 34.2428L11.4102 35.5931L13.4242 34.4206Z" fill="#9A9A9A"/>
<path d="M15.7846 37.1855L14.6749 36.0855L13.0307 37.7442L14.1404 38.8442L15.7846 37.1855Z" fill="#9A9A9A"/>
<path d="M36.9732 37.7446L35.3297 36.0852L34.2196 37.1847L35.8631 38.8441L36.9732 37.7446Z" fill="#9A9A9A"/>
<path d="M39.373 34.246L37.3602 33.073L36.5736 34.4227L38.5865 35.5957L39.373 34.246Z" fill="#9A9A9A"/>
<path d="M40.7983 30.2379L38.5529 29.6305L38.1449 31.1388L40.3903 31.7461L40.7983 30.2379Z" fill="#9A9A9A"/>
<path d="M41.1449 25.9946H38.8211V27.5571H41.1449V25.9946Z" fill="#9A9A9A"/>
<path d="M40.8002 23.3151L40.3927 21.8066L38.1474 22.4132L38.5549 23.9216L40.8002 23.3151Z" fill="#9A9A9A"/>
<path d="M39.3752 19.3042L38.5887 17.9542L36.5758 19.127L37.3624 20.477L39.3752 19.3042Z" fill="#9A9A9A"/>
<path d="M36.9708 15.8072L35.8607 14.7077L34.218 16.3663L35.3281 17.4658L36.9708 15.8072Z" fill="#9A9A9A"/>
<path d="M33.7508 13.0546L32.3943 12.2791L31.2325 14.3113L32.5889 15.0868L33.7508 13.0546Z" fill="#9A9A9A"/>
<path d="M29.9331 11.2415L28.4235 10.8401L27.8212 13.1059L29.3308 13.5072L29.9331 11.2415Z" fill="#9A9A9A"/>
</svg>
