<svg width="50" height="46" viewBox="0 0 50 46" fill="none" xmlns="http://www.w3.org/2000/svg">
<path d="M50 6.49219H48.4375V7.26133H50V6.49219Z" fill="#9A9A9A"/>
<path d="M50 42.8641H48.4375V41.2446H50V42.8641ZM50 39.6254H48.4375V38.0059H50V39.6254ZM50 36.3864H48.4375V34.7668H50V36.3864ZM50 33.1473H48.4375V31.5278H50V33.1473ZM50 29.9082H48.4375V28.2891H50V29.9082ZM50 26.6692H48.4375V25.0496H50V26.6692ZM50 23.4305H48.4375V21.811H50V23.4305ZM50 20.1914H48.4375V18.5719H50V20.1914ZM50 16.9524H48.4375V15.3328H50V16.9524ZM50 13.7133H48.4375V12.0938H50V13.7133ZM50 10.4746H48.4375V8.8551H50V10.4746Z" fill="#9A9A9A"/>
<path d="M50 45.4688H48.45V43.9062L50 43.918V45.4688Z" fill="#9A9A9A"/>
<path d="M46.9367 45.4688H45.3992V43.9062H46.9367V45.4688ZM43.8621 45.4688H42.3246V43.9062H43.8621V45.4688ZM40.7875 45.4688H39.25V43.9062H40.7875V45.4688ZM37.7129 45.4688H36.1754V43.9062H37.7129V45.4688ZM34.6383 45.4688H33.1008V43.9062H34.6383V45.4688ZM31.5637 45.4688H30.0266V43.9062H31.5637V45.4688ZM28.4895 45.4688H26.952V43.9062H28.4895V45.4688ZM25.4149 45.4688H23.8774V43.9062H25.4149V45.4688ZM22.3399 45.4688H20.8024V43.9062H22.3399V45.4688ZM19.2653 45.4688H17.7278V43.9062H19.2653V45.4688ZM16.1907 45.4688H14.6532V43.9062H16.1907V45.4688ZM13.116 45.4688H11.5785V43.9062H13.116V45.4688ZM10.0414 45.4688H8.50393V43.9062H10.0414V45.4688ZM6.96682 45.4688H5.42971V43.9062H6.96721V45.4688H6.96682ZM3.89221 45.4688H2.3551V43.9062H3.8926V45.4688H3.89221Z" fill="#9A9A9A"/>
<path d="M1.55 45.4687H0V43.918H1.5625L1.55 45.4687Z" fill="#9A9A9A"/>
<path d="M1.5625 42.325H0V40.7055H1.5625V42.325ZM1.5625 39.0859H0V37.4664H1.5625V39.0859ZM1.5625 35.8469H0V34.2273H1.5625V35.8469ZM1.5625 32.6082H0V30.9887H1.5625V32.6082ZM1.5625 29.3691H0V27.7496H1.5625V29.3691ZM1.5625 26.1301H0V24.5105H1.5625V26.1301ZM1.5625 22.891H0V21.2715H1.5625V22.891ZM1.5625 19.6523H0V18.0328H1.5625V19.6523ZM1.5625 16.4133H0V14.7937H1.5625V16.4133ZM1.5625 13.1742H0V11.5547H1.5625V13.1742ZM1.5625 9.93514H0V8.31561H1.5625V9.93514Z" fill="#9A9A9A"/>
<path d="M1.5625 6.49219H0V7.26133H1.5625V6.49219Z" fill="#9A9A9A"/>
<path d="M50 7.27383H0V0H50V7.27383ZM1.5625 5.71133H48.4375V1.5625H1.5625V5.71133Z" fill="#9A9A9A"/>
<path d="M4.83242 2.81445H2.99414V4.37695H4.83242V2.81445Z" fill="#9A9A9A"/>
<path d="M8.01606 2.81445H6.177V4.37695H8.01606V2.81445Z" fill="#9A9A9A"/>
<path d="M11.1981 2.81445H9.35901V4.37695H11.1981V2.81445Z" fill="#9A9A9A"/>
<path d="M19.3582 30.5305L12.5406 25.0727L19.3582 19.6149L20.3348 20.8348L15.0407 25.0727L20.3348 29.3106L19.3582 30.5305Z" fill="#9A9A9A"/>
<path d="M30.6418 30.5305L29.6653 29.3106L34.959 25.0727L29.6653 20.8356L30.6418 19.6157L37.4594 25.0727L30.6418 30.5305Z" fill="#9A9A9A"/>
<path d="M28.1273 17.7164L26.6259 17.2839L22.2637 32.4271L23.7651 32.8596L28.1273 17.7164Z" fill="#9A9A9A"/>
</svg>
