<svg width="50" height="48" viewBox="0 0 50 48" fill="none"
    xmlns="http://www.w3.org/2000/svg">
    <g clipPath="url(#clip0_34_35)">
        <path d="M35.7215 47.8594H14.2789C13.0062 47.8594 11.9711 46.8667 11.9711 45.6461V2.35313C11.9711 1.13325 13.0062 0.140625 14.2789 0.140625H35.7211C36.9937 0.140625 38.0289 1.13325 38.0289 2.35313V45.6458C38.0293 46.2364 37.7894 46.7929 37.3527 47.2114C36.9168 47.6295 36.3375 47.8594 35.7215 47.8594ZM14.2789 1.632C13.8629 1.632 13.5242 1.95563 13.5242 2.3535V45.6461C13.5242 46.0444 13.8629 46.3684 14.2789 46.3684H35.7218C36.1375 46.3684 36.4761 46.0444 36.4761 45.6461L36.4754 2.35313C36.4754 1.95525 36.1371 1.63162 35.7207 1.63162H14.2789V1.632Z" fill="#9A9A9A"/>
        <path d="M37.0621 38.8065H12.9379V40.2979H37.0621V38.8065Z" fill="#9A9A9A"/>
        <path d="M37.0621 6.85614H12.9379V8.34751H37.0621V6.85614Z" fill="#9A9A9A"/>
        <path d="M29.0933 3.41888H20.9066V4.91026H29.0933V3.41888Z" fill="#9A9A9A"/>
        <path d="M26 42.5411H24V44.0325H26V42.5411Z" fill="#9A9A9A"/>
        <path d="M49.9999 23.4078H45.0007V24.8992H49.9999V23.4078Z" fill="#9A9A9A"/>
        <path d="M48.1033 15.3121L47.4479 13.96L42.917 15.9842L43.5724 17.3363L48.1033 15.3121Z" fill="#9A9A9A"/>
        <path d="M48.1038 32.9948L43.5724 30.9706L42.917 32.3229L47.4483 34.347L48.1038 32.9948Z" fill="#9A9A9A"/>
        <path d="M4.99961 23.4078H0V24.8992H4.99961V23.4078Z" fill="#9A9A9A"/>
        <path d="M7.08342 32.3211L6.42798 30.9686L1.89696 32.9921L2.55239 34.3447L7.08342 32.3211Z" fill="#9A9A9A"/>
        <path d="M7.08326 15.9854L2.55273 13.9614L1.89731 15.3134L6.42783 17.3375L7.08326 15.9854Z" fill="#9A9A9A"/>
    </g>
    <defs>
        <clipPath id="clip0_34_35">
            <rect width="50" height="48" fill="white"/>
        </clipPath>
    </defs>
</svg>
