<svg width="28" height="28" viewBox="0 0 28 28" fill="none"
    xmlns="http://www.w3.org/2000/svg">
    <g clipPath="url(#clip0_105_2)">
        <path d="M20.2969 16.7469C19.9563 16.5719 18.2594 15.7406 17.9438 15.6281C17.6281 15.5094 17.3969 15.4531 17.1688 15.8031C16.9375 16.15 16.2813 16.9219 16.075 17.1563C15.875 17.3875 15.6719 17.4156 15.3313 17.2438C13.3062 16.2313 11.9781 15.4375 10.6438 13.1469C10.2906 12.5375 10.9969 12.5813 11.6563 11.2656C11.7688 11.0344 11.7125 10.8375 11.625 10.6625C11.5375 10.4875 10.85 8.79375 10.5625 8.10312C10.2844 7.43125 9.99688 7.525 9.7875 7.5125C9.5875 7.5 9.35938 7.5 9.12813 7.5C8.89688 7.5 8.525 7.5875 8.20938 7.92813C7.89375 8.275 7.00313 9.10938 7.00313 10.8031C7.00313 12.4969 8.2375 14.1375 8.40625 14.3688C8.58125 14.6 10.8344 18.075 14.2938 19.5719C16.4813 20.5156 17.3375 20.5969 18.4313 20.4344C19.0969 20.3344 20.4688 19.6031 20.7531 18.7938C21.0375 17.9875 21.0375 17.2969 20.9531 17.1531C20.8688 17 20.6375 16.9125 20.2969 16.7469Z"/>
        <path d="M26.9125 8.575C26.2062 6.89687 25.1937 5.39062 23.9031 4.09687C22.6215 2.81061 21.1001 1.78819 19.425 1.0875C17.7062 0.365624 15.8812 -7.15256e-07 14 -7.15256e-07H13.9375C12.0437 0.00937429 10.2094 0.384374 8.48435 1.12187C6.82359 1.82975 5.31642 2.85399 4.04685 4.1375C2.76872 5.42812 1.7656 6.92812 1.07185 8.6C0.353099 10.3312 -0.00940084 12.1719 -2.58429e-05 14.0656C0.0105781 16.2358 0.524011 18.3741 1.49997 20.3125V25.0625C1.49997 25.4437 1.65142 25.8094 1.92101 26.079C2.19059 26.3485 2.55623 26.5 2.93747 26.5H7.6906C9.62902 27.476 11.7673 27.9894 13.9375 28H14.0031C15.875 28 17.6906 27.6375 19.4 26.9281C21.0666 26.2358 22.5824 25.2253 23.8625 23.9531C25.1531 22.675 26.1687 21.1812 26.8781 19.5156C27.6156 17.7906 27.9906 15.9562 28 14.0625C28.0094 12.1594 27.6406 10.3125 26.9125 8.575ZM22.1906 22.2625C20 24.4313 17.0937 25.625 14 25.625H13.9469C12.0625 25.6156 10.1906 25.1469 8.53748 24.2656L8.27497 24.125H3.87497V19.725L3.73435 19.4625C2.8531 17.8094 2.38435 15.9375 2.37497 14.0531C2.36247 10.9375 3.5531 8.0125 5.73748 5.80937C7.91873 3.60625 10.8344 2.3875 13.95 2.375H14.0031C15.5656 2.375 17.0812 2.67812 18.5094 3.27812C19.9031 3.8625 21.1531 4.70312 22.2281 5.77812C23.3 6.85 24.1437 8.10312 24.7281 9.49687C25.3344 10.9406 25.6375 12.4719 25.6312 14.0531C25.6125 17.1656 24.3906 20.0812 22.1906 22.2625Z"/>
    </g>
    <defs>
        <clipPath id="clip0_105_2">
            <rect width="28" height="28"/>
        </clipPath>
    </defs>
</svg>
