<svg width="64" height="64" viewBox="0 0 64 64" fill="none" xmlns="http://www.w3.org/2000/svg">
<g clip-path="url(#clip0_96_221)">
<path fill-rule="evenodd" clip-rule="evenodd" d="M0 31.999C0 27.3589 0.996025 22.9547 2.77008 18.9766L18.0346 60.7978C7.36023 55.6117 0 44.6654 0 31.999ZM53.6021 30.3849C53.6021 33.123 52.548 36.3012 51.168 40.7293L47.9739 51.3936L36.4095 16.9966C38.3356 16.8946 40.0717 16.6906 40.0717 16.6906C41.7957 16.4886 41.5937 13.9524 39.8677 14.0544C39.8677 14.0544 34.6855 14.4604 31.3394 14.4604C28.1953 14.4604 22.9111 14.0544 22.9111 14.0544C21.1851 13.9524 20.9831 16.5886 22.7071 16.6906C22.7071 16.6906 24.3412 16.8946 26.0652 16.9966L31.0494 30.6549L24.0451 51.6575L12.3928 16.9966C14.3208 16.8946 16.0549 16.6906 16.0549 16.6906C17.779 16.4886 17.5749 13.9524 15.8509 14.0544C15.8509 14.0544 10.6687 14.4604 7.32263 14.4604C6.72261 14.4604 6.0146 14.4465 5.26257 14.4225C10.9848 5.73625 20.8191 0 31.9994 0C40.3297 0 47.9159 3.18405 53.6081 8.40023C53.4701 8.39223 53.3361 8.37419 53.1941 8.37419C50.05 8.37419 47.8199 11.1123 47.8199 14.0544C47.8199 16.6904 49.3419 18.9226 50.964 21.5607C52.18 23.6908 53.6021 26.4288 53.6021 30.3849ZM60.0799 16.6471C62.578 21.2053 64 26.4355 64 31.9997C64 43.804 57.6018 54.1124 48.0875 59.6585L57.8618 31.3996C59.6879 26.8334 60.2959 23.1833 60.2959 19.9372C60.2959 18.7591 60.2179 17.6672 60.0799 16.6471ZM32.5614 34.7983L42.3977 61.7471C42.4617 61.9051 42.5417 62.0492 42.6257 62.1872C39.2996 63.3572 35.7255 64.0011 31.9994 64.0011C28.8593 64.0011 25.8272 63.5411 22.9591 62.6971L32.5614 34.7983Z" fill="#00A2D9"/>
</g>
<defs>
<clipPath id="clip0_96_221">
<rect width="64" height="64" fill="white"/>
</clipPath>
</defs>
</svg>
